<?xml version="1.0" standalone="no"?>
<!DOCTYPE svg PUBLIC "-//W3C//DTD SVG 20010904//EN"
 "http://www.w3.org/TR/2001/REC-SVG-20010904/DTD/svg10.dtd">
<svg version="1.0" xmlns="http://www.w3.org/2000/svg"
 width="800.000000pt" height="800.000000pt" viewBox="0 0 800.000000 800.000000"
 preserveAspectRatio="xMidYMid meet">
<metadata>
Created by potrace 1.14, written by Peter Selinger 2001-2017
</metadata>
<g transform="translate(0.000000,800.000000) scale(0.100000,-0.100000)"
fill="#000000" stroke="none">
<path d="M3500 7535 c-7 -9 -14 -39 -15 -68 -2 -29 -3 -55 -4 -58 -3 -17 -34
-16 -82 0 -49 18 -84 18 -94 0 -7 -10 21 -79 32 -79 14 0 41 -53 36 -70 -3 -8
-6 -21 -9 -28 -3 -10 -11 -9 -39 2 -33 14 -36 14 -42 -2 -8 -20 -21 -31 -88
-76 -83 -54 -85 -60 -28 -96 65 -41 130 -105 135 -134 11 -58 -83 -107 -144
-75 -16 9 -23 7 -34 -9 -8 -11 -29 -30 -48 -41 -29 -18 -38 -20 -60 -10 -37
17 -74 -3 -121 -66 -22 -30 -47 -55 -57 -55 -15 0 -15 5 3 63 10 34 19 63 19
63 0 1 -14 4 -32 8 -51 10 -67 31 -62 82 4 37 1 44 -14 44 -9 0 -34 -11 -54
-25 -21 -14 -48 -29 -62 -35 -23 -8 -25 -7 -31 40 -14 101 -77 131 -138 65
-46 -49 -77 -50 -100 -2 -26 52 -58 51 -93 -3 -27 -40 -44 -51 -44 -27 0 7 -7
23 -16 36 l-17 24 -31 -36 c-17 -19 -52 -46 -77 -60 -91 -49 -88 -46 -82 -100
8 -70 -4 -77 -133 -77 l-101 0 -7 -38 c-3 -22 -22 -60 -42 -87 -47 -60 -58
-127 -25 -145 32 -17 81 -89 81 -119 0 -15 -13 -43 -30 -63 -16 -19 -31 -51
-34 -70 -3 -30 0 -37 24 -51 39 -23 64 -81 64 -149 l0 -58 52 -27 c37 -19 55
-36 67 -63 8 -20 30 -50 47 -66 17 -16 38 -42 47 -58 24 -46 52 -65 84 -56 15
5 29 6 31 4 13 -12 126 -10 152 3 26 14 30 13 38 -1 8 -15 62 -48 73 -45 3 1
26 -2 50 -6 40 -5 45 -9 46 -33 1 -15 2 -44 3 -64 3 -56 -4 -62 -55 -48 -77
21 -199 -3 -199 -38 0 -26 -117 -152 -141 -152 -10 0 -43 11 -74 24 -53 24
-55 26 -55 64 0 33 -7 44 -45 80 -30 27 -45 50 -45 66 0 19 -8 27 -35 36 -65
21 -137 19 -199 -6 -14 -5 -17 -4 -12 4 9 15 -3 19 -74 27 -120 12 -171 27
-180 50 -16 42 -80 94 -134 108 -100 28 -177 39 -191 27 -16 -13 -104 -14
-169 -2 -41 8 -54 7 -73 -6 -30 -23 -29 -63 3 -101 27 -32 25 -51 -5 -51 -24
0 -66 -47 -86 -94 l-16 -39 -38 37 c-40 40 -51 37 -66 -14 -9 -31 -25 -51 -34
-45 -18 10 -66 13 -82 4 -10 -5 -24 -27 -30 -49 -7 -22 -21 -49 -31 -60 l-19
-20 -40 21 c-22 11 -53 19 -67 17 -25 -3 -27 -7 -30 -50 -3 -41 -7 -49 -27
-54 -13 -3 -28 -3 -34 0 -5 4 -15 -2 -21 -13 -11 -21 -4 -48 34 -134 21 -48 5
-57 -49 -28 -36 19 -65 19 -65 -1 0 -5 -19 -37 -43 -72 -95 -138 -87 -176 31
-151 l32 8 0 -48 c0 -45 3 -51 65 -111 75 -74 81 -97 29 -114 -45 -15 -54 -41
-40 -105 7 -27 10 -58 8 -67 -4 -22 -30 -23 -51 -4 -9 8 -27 16 -41 18 -21 3
-25 -1 -23 -22 2 -14 5 -69 7 -122 6 -140 7 -142 70 -135 28 4 60 9 72 12 31
9 48 -42 50 -150 2 -49 3 -98 3 -108 1 -10 13 -22 27 -27 15 -6 36 -22 47 -36
11 -14 31 -30 46 -35 21 -8 29 -7 41 9 23 28 40 31 90 16 25 -8 46 -10 48 -4
18 52 131 150 174 150 23 0 37 -34 31 -76 -3 -23 1 -36 15 -45 10 -8 36 -39
57 -69 45 -64 53 -73 82 -88 38 -21 71 -15 85 15 14 28 46 47 35 21 -3 -8 5
-27 17 -41 25 -29 31 -27 95 32 27 25 42 31 80 31 56 0 66 13 76 96 8 72 24
135 37 151 7 8 19 1 45 -28 19 -21 41 -39 49 -39 10 0 7 -13 -11 -46 -14 -26
-25 -61 -25 -79 0 -38 25 -53 109 -62 31 -3 75 -11 99 -18 23 -7 42 -9 42 -4
0 21 89 97 144 123 53 25 59 26 74 12 10 -9 28 -24 41 -34 l23 -18 -25 -50
c-13 -27 -33 -77 -42 -112 -14 -50 -21 -62 -34 -56 -54 22 -64 11 -96 -103
-24 -87 -31 -90 -107 -52 -79 40 -163 93 -206 130 -40 36 -61 36 -118 3 -30
-18 -54 -25 -74 -22 -38 6 -45 -15 -36 -112 3 -38 1 -81 -5 -98 -10 -29 -11
-29 -102 -35 -132 -8 -181 -22 -230 -65 -16 -14 -20 -14 -46 1 -42 25 -65 21
-121 -19 -74 -53 -92 -97 -65 -160 17 -42 17 -43 -15 -49 -37 -7 -40 -17 -25
-75 19 -75 23 -109 15 -145 -6 -25 -2 -34 19 -51 22 -19 25 -29 26 -90 l0 -69
31 3 c39 4 55 -15 57 -70 3 -59 25 -61 72 -4 51 62 65 60 65 -9 0 -65 7 -68
78 -30 60 32 67 31 109 -5 18 -17 40 -30 48 -30 24 0 27 -19 6 -46 -26 -33
-26 -54 -1 -104 40 -79 89 -89 144 -30 62 67 70 53 32 -52 -38 -110 -37 -151
6 -156 19 -2 38 7 67 34 29 26 41 32 41 20 0 -40 14 -62 52 -86 34 -20 27 -22
129 39 l37 22 7 -38 c9 -47 22 -73 38 -73 7 0 30 18 52 40 60 62 113 70 139
22 11 -21 13 -20 66 33 56 58 91 75 114 56 10 -8 16 -9 21 -1 7 11 47 13 82 4
20 -6 20 -7 -14 -42 -46 -48 -75 -114 -78 -175 -1 -48 -1 -49 54 -91 31 -23
61 -53 68 -66 10 -21 18 -24 57 -21 28 1 57 -4 78 -15 40 -21 108 -28 108 -10
0 7 7 21 15 32 14 19 14 19 29 -2 21 -29 59 -35 87 -13 30 23 60 24 128 3 54
-16 123 -12 148 8 7 6 15 25 19 43 10 54 84 70 84 19 0 -37 28 -84 49 -84 10
0 55 18 99 40 84 42 92 53 106 133 13 75 35 88 61 37 26 -51 87 -37 156 37 50
52 62 78 53 116 -14 68 -57 129 -119 171 -36 25 -34 30 11 27 34 -3 85 22 151
73 68 53 89 53 99 -2 l7 -35 38 40 c21 23 41 54 44 70 4 15 8 33 10 39 1 5 23
11 47 12 54 3 64 -12 67 -103 1 -33 4 -73 7 -90 10 -70 12 -165 4 -206 -64
-325 -65 -395 -4 -709 14 -74 28 -146 30 -160 3 -14 7 -32 9 -40 11 -40 20
-157 20 -270 -1 -150 -9 -172 -115 -298 -39 -46 -70 -87 -70 -92 0 -5 -12 -10
-27 -12 -24 -3 -25 -5 -12 -18 9 -8 14 -21 11 -28 -6 -20 22 -24 70 -7 34 11
53 13 73 5 67 -25 169 -3 207 45 21 27 83 36 91 13 3 -10 9 -9 23 3 11 10 46
19 84 23 63 6 94 10 152 22 15 3 37 0 49 -6 12 -7 53 -13 90 -14 38 -1 72 -5
76 -9 3 -4 15 -7 25 -7 13 0 18 7 18 26 0 38 -16 63 -90 134 -61 60 -68 71
-84 135 -44 174 -46 212 -46 707 0 416 -2 484 -16 528 -22 69 -15 97 62 231
66 116 96 150 126 145 26 -3 31 -11 53 -79 25 -77 46 -85 75 -27 34 66 95 80
102 23 7 -61 79 -6 112 86 10 27 29 62 42 76 24 26 26 26 43 11 10 -10 21 -30
24 -45 7 -32 31 -61 52 -61 8 0 22 12 32 26 41 58 64 82 84 87 20 5 21 3 17
-110 -3 -107 -5 -116 -27 -134 -34 -27 -50 -24 -67 16 -16 38 -32 45 -40 18
-3 -10 -10 -27 -16 -38 -53 -97 -78 -152 -78 -173 0 -26 -4 -25 74 -6 35 9 67
-49 74 -132 2 -35 9 -67 14 -70 5 -3 31 6 58 20 l48 25 31 -35 c17 -19 31 -44
31 -54 0 -13 7 -20 20 -20 19 0 36 13 72 58 23 28 36 28 47 -1 5 -13 24 -37
41 -53 80 -72 84 -79 83 -142 0 -29 34 -30 70 -1 15 11 42 23 60 26 33 5 34 4
40 -34 4 -23 18 -50 36 -68 34 -35 91 -70 91 -56 0 5 2 16 5 23 3 8 -9 35 -26
61 -35 53 -34 78 5 120 28 30 68 30 119 -2 18 -10 43 -21 56 -23 22 -3 25 2
36 52 11 56 31 96 50 104 6 2 33 -7 61 -19 79 -38 94 -34 173 43 59 57 71 75
81 117 24 110 30 125 50 125 12 0 30 -16 45 -40 15 -25 33 -40 45 -40 13 0 27
14 40 40 11 22 25 40 30 40 14 0 35 -34 61 -100 13 -33 29 -60 36 -60 19 0 53
37 69 75 16 39 49 65 80 65 12 0 44 -18 70 -40 48 -39 102 -63 116 -51 3 3 9
22 12 41 13 83 47 162 134 307 43 73 52 96 43 107 -22 26 -69 27 -148 1 -42
-14 -78 -23 -81 -20 -3 2 -5 27 -6 55 0 27 -5 51 -11 51 -24 3 -51 -4 -72 -17
-23 -14 -88 -20 -79 -6 2 4 7 36 10 72 12 126 41 168 90 129 14 -11 26 -29 26
-40 0 -17 5 -19 43 -14 63 8 131 33 175 65 l39 28 39 -23 c22 -13 56 -25 77
-28 37 -5 40 -4 58 36 10 23 19 50 19 59 0 9 10 20 23 24 12 3 43 22 68 40 26
19 52 34 57 34 6 0 27 -11 47 -24 49 -33 64 -28 84 30 32 90 114 274 122 275
5 1 17 2 27 3 34 4 82 18 83 24 2 21 9 48 24 97 21 64 14 101 -20 117 -31 14
-32 38 -4 95 27 57 22 74 -29 97 -42 20 -54 42 -27 52 31 12 28 44 -9 85 -35
38 -36 40 -21 69 19 37 19 61 -2 127 -13 42 -15 62 -7 93 10 35 9 39 -13 49
-47 21 -98 11 -143 -30 -14 -12 -36 -32 -49 -43 l-24 -21 7 34 c3 19 14 39 23
46 26 19 10 43 -26 37 -28 -4 -31 -2 -31 22 0 20 -4 24 -17 19 -10 -4 -22 -11
-26 -17 -5 -6 -6 -2 -2 9 15 43 12 50 -25 47 -19 -2 -54 -12 -77 -22 -43 -19
-66 -23 -115 -21 -26 1 -27 3 -25 53 2 64 -18 75 -58 30 -15 -17 -35 -32 -46
-35 -17 -5 -18 -3 -4 30 34 81 5 102 -58 42 -48 -45 -78 -56 -112 -41 -21 10
-24 7 -40 -33 -26 -69 -77 -112 -213 -178 -114 -55 -124 -58 -141 -43 -10 9
-23 16 -29 16 -6 0 -36 11 -65 25 -53 24 -54 25 -51 62 2 21 3 55 3 76 1 32 4
37 25 37 16 0 36 -14 58 -39 35 -41 85 -68 99 -54 4 4 10 20 13 35 10 56 37
82 62 59 5 -5 26 -18 46 -29 42 -24 45 -21 72 48 42 107 64 131 129 134 12 1
26 12 33 26 19 38 54 119 54 125 0 2 11 29 25 59 25 55 26 67 11 181 -3 24
-19 35 -43 31 -14 -3 -28 -7 -31 -10 -2 -3 -13 -1 -23 5 -29 15 -23 48 16 85
19 18 39 45 45 59 l10 26 -53 -6 c-42 -5 -56 -4 -66 9 -8 9 -17 16 -21 16 -4
0 -32 -25 -63 -55 -121 -120 -188 -92 -164 68 6 37 8 70 5 73 -3 3 -15 0 -27
-7 -31 -20 -36 -4 -8 33 54 72 121 238 98 246 -30 10 -71 55 -71 78 0 33 -20
39 -65 20 -55 -23 -58 -22 -50 32 3 26 8 58 10 72 2 14 6 60 9 104 3 43 9 82
12 87 12 20 -26 7 -61 -21 -47 -37 -80 -41 -69 -7 25 76 -7 85 -86 23 -32 -26
-60 -43 -62 -39 -2 5 -4 22 -3 40 1 31 1 31 -26 17 -18 -9 -40 -39 -65 -89
-41 -83 -66 -110 -106 -120 -21 -5 -30 -2 -43 19 -14 21 -16 40 -10 126 l8
100 -37 -6 c-27 -4 -48 -18 -78 -50 -28 -30 -48 -44 -62 -42 -21 3 -22 6 -25
53 -2 38 -46 35 -66 -5 -21 -41 -39 -38 -70 16 -14 25 -38 49 -52 55 -14 5
-27 8 -28 7 0 -2 -7 -22 -15 -46 -7 -24 -17 -45 -20 -47 -11 -7 -4 167 8 205
6 19 13 53 17 75 10 57 22 69 50 51 12 -8 35 -16 51 -18 25 -3 30 2 47 47 19
51 32 119 41 213 l5 53 -39 15 c-58 23 -57 39 7 135 42 63 44 69 30 89 -10 15
-13 35 -10 63 5 42 6 71 4 95 -2 18 -45 15 -64 -5 -60 -67 -80 -83 -99 -83
-19 0 -20 4 -14 69 7 90 -3 102 -82 99 -85 -3 -93 7 -67 89 5 17 3 24 -11 30
-11 3 -34 19 -52 35 -18 15 -36 28 -41 28 -4 0 -15 -28 -25 -61 -17 -63 -60
-119 -90 -119 -19 0 -19 -2 -1 49 14 41 13 44 -15 42 -27 -2 -43 17 -45 51 -2
32 -3 33 -36 28 -52 -7 -101 -6 -131 3 -24 6 -27 4 -33 -26 -12 -53 -35 -91
-48 -78 -24 24 -45 11 -74 -46 -38 -75 -116 -130 -127 -90 -2 6 -9 32 -16 56
-13 47 -8 46 -102 25 -27 -6 -28 -5 -28 37 0 24 8 75 17 112 19 73 13 90 -30
81 -11 -2 -30 4 -42 14 -19 15 -20 20 -9 47 27 64 8 82 -66 63 -22 -6 -43 -8
-45 -6 -3 3 3 25 14 49 36 83 36 82 -19 138 -49 50 -84 71 -116 71 -8 0 -14
-5 -14 -10 0 -15 -44 -80 -54 -80 -5 0 -17 7 -26 15 -21 19 -30 10 -75 -73
-42 -77 -52 -81 -106 -42 -36 25 -56 32 -92 32 -50 0 -58 6 -62 47 -4 53 -14
69 -40 66 -14 -1 -30 -7 -37 -12 -7 -6 -23 -14 -34 -17 -19 -6 -23 -1 -33 41
-18 73 -21 76 -67 57 -21 -9 -54 -18 -71 -19 -28 -3 -33 0 -33 18 0 36 -12 44
-76 51 -49 5 -64 4 -74 -9z m-550 -839 c0 -2 -7 -7 -16 -10 -8 -3 -12 -2 -9 4
6 10 25 14 25 6z m-2813 -1698 c-3 -8 -6 -5 -6 6 -1 11 2 17 5 13 3 -3 4 -12
1 -19z m2901 -237 c6 -1 12 -6 12 -12 0 -6 -7 -9 -15 -5 -13 5 -20 -5 -16 -26
2 -12 -17 -10 -24 2 -3 6 -12 10 -18 10 -7 0 -5 -5 5 -10 19 -12 13 -54 -7
-46 -7 2 -21 -2 -32 -9 -10 -8 -13 -15 -7 -15 6 0 14 3 18 7 6 6 22 10 61 14
6 1 15 0 22 -2 6 -2 10 1 10 6 -1 6 -12 10 -24 9 -13 0 -23 4 -23 8 0 8 16 12
34 9 5 -1 4 5 -4 13 -10 13 -10 16 4 16 9 0 16 -8 16 -20 0 -11 5 -20 11 -20
6 0 8 -7 5 -16 -3 -9 -3 -21 1 -27 4 -6 6 -30 6 -54 -1 -24 3 -43 8 -43 5 0 9
-4 9 -10 0 -18 -19 -10 -25 11 -5 16 -12 19 -31 15 -18 -5 -22 -3 -18 8 3 8 1
17 -5 21 -7 4 -8 -1 -4 -12 3 -10 3 -15 -2 -11 -4 4 -15 3 -25 -2 -13 -7 -22
-4 -35 10 -17 19 -17 21 0 40 10 11 23 20 28 20 6 0 2 -9 -7 -19 -20 -22 -14
-43 10 -34 10 4 11 9 4 18 -7 9 -2 12 20 12 16 0 29 -3 28 -6 -2 -19 4 -28 18
-28 14 0 14 2 -2 14 -16 12 -12 18 9 14 5 -1 6 3 2 9 -3 5 -1 10 5 10 6 0 8 5
5 11 -5 6 -11 4 -19 -6 -11 -16 -13 -15 -27 1 -13 16 -12 17 6 10 15 -5 17 -4
9 4 -8 8 -18 9 -30 2 -11 -5 -24 -8 -29 -5 -6 2 -21 -6 -33 -17 -11 -11 -26
-20 -33 -20 -6 0 5 -14 25 -32 34 -30 53 -65 21 -38 -15 12 -20 4 -16 -22 0
-5 -4 -8 -10 -8 -8 0 -8 -4 1 -14 6 -8 17 -13 24 -10 6 2 12 -4 13 -16 1 -11
-4 -20 -13 -20 -8 0 -14 -5 -14 -11 0 -5 5 -7 12 -3 7 4 8 3 4 -5 -5 -8 -15
-7 -37 6 -16 10 -29 21 -29 25 0 19 -31 6 -42 -17 -6 -13 -15 -22 -20 -19 -5
3 -2 18 7 32 l16 27 -20 -24 c-12 -12 -18 -27 -15 -32 3 -5 -2 -9 -10 -9 -19
0 -20 11 -3 30 6 8 2 6 -10 -4 -24 -20 -32 -10 -10 13 10 11 9 12 -2 6 -11 -6
-13 -2 -9 16 9 44 13 52 28 69 14 16 16 16 29 1 12 -14 12 -14 7 5 -6 20 24
51 67 67 9 3 17 15 17 26 0 10 7 22 16 25 8 3 13 10 10 15 -3 5 1 12 9 15 8 3
15 9 14 13 -4 25 3 34 20 28 11 -3 22 -1 26 4 3 7 0 8 -9 5 -9 -3 -16 -2 -16
4 0 6 8 9 18 7 9 -2 23 -4 30 -4z m927 -30 c0 -16 -3 -27 -7 -25 -6 4 -5 29 1
52 4 11 7 -3 6 -27z m-13 -45 c7 4 8 2 4 -5 -9 -13 -26 -5 -25 12 0 9 2 8 6
-1 2 -6 10 -9 15 -6z m-1108 -42 c3 -8 2 -12 -4 -9 -6 3 -10 10 -10 16 0 14 7
11 14 -7z m1163 -29 c0 -8 -4 -12 -9 -9 -5 4 -7 9 -4 12 3 3 -2 15 -11 26 -18
21 -18 21 3 3 11 -9 21 -24 21 -32z m-1097 25 c0 -5 -5 -10 -11 -10 -5 0 -7 5
-4 10 3 6 8 10 11 10 2 0 4 -4 4 -10z m100 -10 c0 -5 -4 -10 -10 -10 -5 0 -10
5 -10 10 0 6 5 10 10 10 6 0 10 -4 10 -10z m753 -44 c9 1 15 -1 12 -6 -8 -13
-38 -5 -43 11 -2 9 -1 10 5 3 4 -6 16 -10 26 -8z m47 -6 c0 -5 -4 -10 -10 -10
-5 0 -10 5 -10 10 0 6 5 10 10 10 6 0 10 -4 10 -10z m-777 -24 c10 4 20 -4 30
-23 9 -15 19 -27 23 -25 10 4 29 -57 29 -93 0 -23 -5 -30 -20 -31 -11 0 -26 4
-32 9 -7 5 -13 6 -13 2 0 -4 -6 -2 -14 4 -11 9 -15 9 -20 -1 -3 -7 -4 -4 -3 7
1 12 -3 19 -10 18 -7 -2 -13 4 -13 13 0 8 -3 13 -8 11 -4 -3 -7 8 -7 24 -1 33
7 36 26 12 12 -15 12 -16 -6 -10 -18 7 -19 6 -3 -6 10 -8 15 -17 11 -21 -4 -4
1 -4 10 0 10 3 17 3 16 -2 -3 -20 2 -35 10 -29 5 3 16 -1 24 -10 12 -12 16
-12 20 -1 3 7 0 19 -6 25 -6 6 -7 11 -1 11 6 0 15 -5 20 -10 7 -7 11 -6 11 4
0 8 -5 12 -10 9 -6 -3 -7 -2 -4 4 3 5 -9 8 -29 6 -31 -2 -34 0 -23 13 8 10 15
12 23 4 16 -16 24 -12 24 13 0 13 -6 24 -13 24 -7 0 -11 -7 -8 -15 5 -12 3
-12 -15 -1 -18 12 -19 15 -6 22 12 7 13 12 3 23 -10 13 -15 12 -32 -3 -19 -17
-20 -17 -14 -1 3 10 1 20 -6 24 -7 4 -9 4 -5 -1 10 -11 -8 -42 -32 -55 -16 -8
-19 -7 -17 10 1 12 7 19 17 17 8 -1 15 5 15 13 0 20 17 31 31 19 6 -5 18 -7
27 -3z m681 -1 c-19 -15 -19 -16 1 -13 11 2 24 8 28 13 5 6 7 4 5 -4 -4 -15
-35 -24 -50 -15 -11 7 10 34 25 34 6 0 2 -7 -9 -15z m196 5 c0 -5 -5 -10 -11
-10 -5 0 -7 5 -4 10 3 6 8 10 11 10 2 0 4 -4 4 -10z m-871 -41 c-22 -14 -33
-10 -19 6 7 8 17 12 22 9 6 -4 5 -10 -3 -15z m846 1 c3 -5 1 -10 -4 -10 -6 0
-11 5 -11 10 0 6 2 10 4 10 3 0 8 -4 11 -10z m-847 -47 c-16 -20 -32 -15 -17
5 7 9 9 14 5 10 -10 -8 -36 9 -36 23 0 4 13 0 29 -9 22 -12 27 -20 19 -29z
m699 41 c-3 -3 -12 -4 -19 -1 -8 3 -5 6 6 6 11 1 17 -2 13 -5z m-32 -14 c3 -5
1 -10 -4 -10 -6 0 -11 5 -11 10 0 6 2 10 4 10 3 0 8 -4 11 -10z m153 -23 c4 1
9 -1 12 -4 3 -4 -1 -2 -9 2 -11 6 -13 4 -8 -11 7 -18 6 -18 -6 -2 -8 10 -16
16 -18 13 -3 -2 -5 5 -5 16 0 19 1 19 14 2 7 -10 16 -17 20 -16z m79 27 c-3
-3 -12 -4 -19 -1 -8 3 -5 6 6 6 11 1 17 -2 13 -5z m-294 -30 c-3 -9 3 -12 23
-8 l28 5 -27 -25 c-16 -14 -33 -26 -40 -25 -7 0 -2 5 11 11 12 6 22 15 22 20
0 5 -5 6 -10 3 -6 -3 -13 1 -16 9 -3 9 -10 14 -14 11 -5 -3 -11 -2 -14 3 -2 4
6 8 19 8 14 0 21 -5 18 -12z m87 -4 c-12 -23 -16 -24 -26 -8 -4 7 -3 8 4 4 7
-4 12 -1 12 8 0 9 5 16 10 16 7 0 7 -6 0 -20z m200 8 c0 -4 -4 -8 -9 -8 -6 0
-12 4 -15 8 -3 5 1 9 9 9 8 0 15 -4 15 -9z m-347 -61 c-23 -16 -43 -33 -43
-38 0 -6 -9 -5 -20 1 -20 11 -40 6 -40 -8 0 -4 8 -8 18 -8 9 -1 25 -4 35 -9
11 -5 17 -3 17 7 0 8 14 24 30 36 17 13 30 19 30 14 0 -5 -10 -14 -23 -21 -12
-7 -27 -22 -32 -34 -6 -12 -27 -31 -48 -43 -20 -11 -34 -24 -30 -27 3 -4 11
-3 17 2 19 14 46 21 46 11 0 -6 -9 -10 -19 -10 -11 0 -23 -5 -27 -11 -4 -8 -9
-8 -17 0 -6 6 -15 11 -21 11 -5 0 5 -14 22 -31 18 -18 30 -34 28 -37 -3 -2
-16 9 -30 24 l-24 29 1 -28 c1 -16 7 -25 13 -23 7 3 10 -3 7 -15 -3 -11 0 -19
6 -19 7 0 10 4 7 8 -2 4 10 9 27 10 l32 2 -34 -15 c-18 -8 -37 -12 -42 -9 -13
8 -11 -10 3 -24 14 -14 32 -16 24 -3 -3 4 6 13 19 19 15 7 25 8 25 2 0 -6 -6
-10 -14 -10 -8 0 -18 -9 -21 -21 -5 -16 -10 -18 -20 -9 -11 9 -14 7 -12 -9 1
-13 6 -20 14 -17 18 7 16 1 -4 -20 -16 -16 -16 -18 6 -36 13 -10 22 -20 20
-21 -2 -1 -11 -8 -20 -14 -12 -10 -18 -7 -33 20 l-18 32 20 -25 c12 -14 24
-21 29 -17 4 5 1 12 -7 17 -9 6 -14 27 -15 62 -1 44 -4 53 -20 56 -17 3 -17 1
-5 -7 13 -10 13 -11 0 -11 -13 0 -13 -1 0 -10 8 -5 11 -13 6 -17 -8 -7 -16 4
-18 24 -1 5 -8 14 -17 21 -9 8 -11 11 -4 8 14 -8 45 3 38 14 -2 4 -16 6 -31 4
-14 -1 -23 0 -20 3 3 3 0 15 -6 27 -7 11 -11 24 -10 29 1 4 -4 7 -10 7 -22 0
32 31 60 34 15 2 31 4 35 5 4 0 3 10 -3 22 -7 13 -17 18 -27 15 -9 -4 -21 -1
-29 5 -10 8 -13 6 -11 -10 1 -14 6 -20 15 -16 7 3 10 0 7 -6 -4 -5 -15 -7 -26
-4 -12 4 -19 2 -17 -5 2 -7 -4 -15 -12 -17 -12 -4 -12 -3 -2 5 11 7 11 10 -3
16 -9 3 -14 10 -11 15 3 5 -1 12 -10 15 -9 4 -14 9 -11 13 4 3 2 12 -5 20 -8
11 -7 12 5 7 12 -4 15 -1 12 13 -2 12 2 20 10 20 8 0 12 -4 9 -8 -2 -4 0 -10
6 -14 5 -3 10 2 10 12 0 11 17 27 42 41 23 12 39 19 35 16 -3 -4 -2 -15 3 -25
7 -12 6 -22 -4 -31 -11 -11 -11 -16 1 -26 7 -7 11 -17 8 -23 -4 -5 -2 -9 3 -9
16 0 21 12 12 29 -5 10 -5 23 1 32 7 12 9 12 9 -1 0 -13 1 -13 10 0 14 22 12
28 -7 26 -22 -1 -24 26 -3 30 8 2 26 5 38 8 20 4 22 3 12 -9 -6 -8 -19 -11
-28 -8 -15 6 -15 5 -3 -10 7 -9 18 -14 25 -11 6 3 2 -1 -8 -10 -17 -14 -17
-16 -3 -22 19 -7 40 4 32 17 -3 5 1 6 11 2 13 -5 15 -2 9 18 -4 15 -3 19 3 11
10 -14 45 -5 36 9 -3 5 -9 7 -13 5 -4 -3 -8 1 -8 9 0 11 5 10 22 -3 l22 -16
-44 -29z m-878 4 c-3 -17 0 -35 8 -43 7 -7 16 -21 20 -31 4 -10 11 -15 17 -12
5 3 10 -1 10 -9 0 -9 4 -16 10 -16 5 0 9 -15 8 -33 -1 -38 9 -60 23 -52 11 7
12 -8 2 -19 -5 -4 -8 -11 -9 -14 -5 -40 -52 -102 -77 -103 -19 -1 -19 -2 -3
-6 16 -4 15 -7 -10 -24 -36 -24 -45 -24 -38 -1 5 14 3 14 -11 -3 -17 -20 -17
-20 -12 3 3 12 1 20 -4 16 -5 -3 -9 -13 -9 -22 0 -12 -3 -13 -12 -4 -7 7 -25
12 -41 12 -19 0 -26 4 -21 12 4 6 -5 3 -19 -8 -15 -10 -25 -25 -22 -31 2 -7
-4 -17 -13 -22 -9 -6 -12 -11 -5 -11 7 0 10 -7 7 -17 -4 -11 -3 -14 3 -7 12
16 43 13 43 -3 0 -8 -5 -11 -12 -7 -6 4 -8 3 -5 -4 4 -5 16 -8 28 -5 16 4 17
8 7 14 -9 6 -3 9 17 9 17 0 37 -6 44 -12 8 -7 11 -8 8 -3 -3 7 7 9 29 7 37 -5
90 5 81 15 -8 8 21 63 33 63 14 0 12 -9 -5 -26 -8 -9 -15 -23 -14 -32 0 -13 3
-11 9 5 10 25 36 41 59 38 9 -1 10 0 3 2 -7 3 -10 9 -7 14 4 5 1 9 -4 9 -6 0
-11 -5 -11 -12 0 -8 -6 -7 -16 4 -17 17 -12 38 9 38 8 0 8 -3 -2 -9 -9 -6 -6
-8 12 -8 26 0 26 0 6 16 -20 16 -20 17 -3 31 10 8 15 10 12 5 -9 -15 7 -39 21
-31 6 4 11 13 11 19 0 7 -4 6 -10 -3 -5 -8 -10 -13 -11 -10 0 3 -2 15 -5 28
-4 23 11 31 20 10 2 -7 4 -2 3 12 -2 22 2 25 33 24 55 -2 60 -3 60 -15 0 -5
-4 -7 -10 -4 -5 3 -7 0 -5 -7 4 -9 -2 -14 -15 -14 -22 0 -25 7 -10 22 7 7 6
11 -4 11 -8 0 -13 -4 -10 -9 3 -4 1 -8 -5 -8 -5 0 -12 6 -14 13 -3 6 -4 -3 -3
-20 2 -18 -2 -40 -9 -50 -10 -14 -8 -20 14 -39 14 -13 21 -24 15 -24 -6 0 -17
7 -24 15 -7 8 -18 15 -24 15 -6 0 -3 -5 7 -11 18 -10 18 -12 -5 -37 -12 -14
-17 -22 -9 -17 11 6 13 4 8 -8 -4 -12 -2 -14 10 -10 13 5 14 3 4 -15 -14 -26
-33 -39 -30 -21 3 26 -1 39 -12 39 -8 0 -7 -6 2 -16 12 -15 11 -16 -7 -10 -15
4 -29 -3 -53 -28 -32 -33 -35 -63 -5 -52 15 6 62 -29 52 -39 -4 -4 -14 0 -23
9 -26 25 -37 19 -12 -7 15 -16 26 -20 35 -14 8 6 12 5 12 -2 0 -6 -7 -14 -15
-17 -10 -4 -14 -14 -10 -28 6 -21 6 -21 -9 -2 -9 11 -16 16 -16 10 0 -5 -5 -2
-11 6 -9 13 -10 13 -6 -1 6 -20 -20 -62 -34 -54 -5 4 -9 4 -9 1 0 -3 4 -7 9
-10 11 -7 53 29 44 38 -3 3 -1 6 5 6 24 0 20 -19 -11 -46 -18 -16 -39 -30 -47
-32 -8 -2 -21 -8 -30 -13 -12 -8 -11 -9 5 -4 11 4 25 8 32 9 7 1 21 10 33 21
11 10 20 13 20 7 0 -7 5 -12 11 -12 8 0 8 4 -1 14 -9 12 -8 15 9 13 12 -1 20
-6 17 -12 -2 -6 7 -11 22 -10 14 0 27 6 30 13 4 12 -3 14 -46 15 -12 0 -21 5
-19 11 3 10 29 12 69 3 22 -4 36 -17 19 -17 -7 0 -9 -5 -6 -10 4 -6 12 -5 20
4 8 8 19 16 25 18 5 1 11 15 12 31 2 27 12 35 23 18 3 -5 1 -12 -4 -16 -6 -3
-8 -12 -5 -19 5 -13 -55 -57 -86 -62 -8 -2 -20 -10 -26 -18 -6 -9 -13 -13 -16
-11 -3 3 -17 -6 -31 -19 -20 -18 -27 -21 -27 -10 0 8 7 17 15 20 8 4 12 11 8
17 -4 6 0 8 9 5 8 -4 21 -3 28 2 7 4 -3 7 -26 7 -22 -1 -45 -7 -52 -14 -7 -7
-10 -13 -5 -13 5 0 14 5 21 12 16 16 15 6 -1 -23 -7 -13 -19 -26 -27 -27 -41
-10 -50 -10 -45 -1 4 5 1 9 -4 9 -6 0 -11 -5 -11 -11 0 -6 -17 -9 -42 -7 -43
3 -43 3 -42 41 1 20 -3 37 -7 37 -5 0 -9 6 -9 13 0 6 -12 23 -26 36 -19 18
-22 26 -12 32 9 6 9 9 1 9 -6 0 -15 -5 -18 -10 -4 -6 -11 -7 -17 -4 -7 5 -9 1
-5 -9 10 -26 -1 -21 -44 22 -22 22 -53 45 -69 51 -17 7 -27 16 -24 21 3 5 -1
6 -9 4 -17 -7 -69 33 -61 46 3 5 0 8 -8 7 -7 -2 -12 3 -10 10 1 8 -2 11 -7 8
-13 -8 -42 34 -34 48 3 6 2 8 -2 3 -5 -4 -17 0 -27 10 -10 9 -19 12 -19 7 -5
-30 -3 -60 5 -65 5 -4 9 -18 9 -33 0 -14 3 -24 7 -21 4 2 13 -8 21 -23 8 -15
21 -32 29 -39 8 -7 11 -13 6 -13 -6 0 4 -12 22 -26 17 -15 29 -31 25 -37 -3
-5 -1 -7 4 -4 6 4 16 0 22 -7 9 -10 9 -16 1 -21 -8 -5 -8 -11 -1 -19 6 -7 8
-16 4 -19 -3 -4 -2 -7 4 -7 5 0 19 -8 31 -18 11 -10 32 -27 46 -37 25 -19 37
-43 14 -29 -7 4 -8 3 -4 -5 5 -7 -1 -20 -14 -31 -12 -10 -20 -20 -18 -22 5 -5
-76 -118 -85 -118 -5 0 -5 6 -1 13 5 8 2 8 -9 -2 -18 -15 -23 -26 -7 -16 6 3
10 -1 10 -10 0 -10 -6 -15 -13 -12 -7 3 -13 -3 -14 -12 -1 -10 -15 -41 -32
-70 -17 -28 -31 -56 -31 -61 0 -6 -4 -10 -10 -10 -5 0 -9 -3 -8 -7 1 -5 -2
-19 -6 -32 -5 -14 -4 -26 2 -30 6 -3 0 -20 -14 -41 -16 -23 -24 -29 -24 -17 0
9 4 17 8 17 14 0 7 86 -9 111 -9 13 -30 39 -47 57 -29 31 -48 80 -43 112 3 22
23 60 30 57 3 -2 26 17 51 42 25 25 37 39 28 32 -16 -12 -18 -11 -18 11 0 14
-13 36 -29 52 -21 20 -27 33 -22 50 10 36 38 69 52 61 8 -6 10 -4 5 4 -5 7 -1
20 7 29 19 23 28 62 13 59 -6 -1 -10 4 -8 11 1 8 -1 11 -5 9 -5 -3 -30 -1 -56
3 -41 6 -54 4 -81 -15 l-32 -22 4 29 c3 19 11 29 23 30 11 0 25 1 32 2 16 1
47 60 47 88 0 21 -4 23 -55 21 -31 -2 -55 1 -55 7 0 6 6 10 14 10 7 0 36 7 62
15 111 33 199 57 200 54 0 -2 8 2 17 10 9 7 24 11 32 7 9 -3 14 -2 11 3 -7 10
122 63 135 55 5 -3 8 0 7 8 -2 7 3 12 10 11 6 -2 12 2 12 8 0 6 9 8 20 4 14
-4 20 -2 18 7 -2 7 5 12 15 12 10 -1 16 0 13 3 -10 10 43 45 56 37 9 -5 8 -2
-1 10 -13 15 -12 17 12 12 15 -3 27 0 27 6 0 5 -6 8 -14 5 -24 -9 -26 5 -7 42
11 20 32 69 47 109 29 77 37 89 29 43z m365 6 c12 -17 12 -17 -14 -6 -18 9
-23 15 -14 20 7 4 13 7 13 6 0 -1 7 -10 15 -20z m626 -6 c-9 -14 -26 -14 -26
0 0 5 5 7 12 3 8 -5 9 -1 4 12 -5 14 -4 16 5 7 6 -6 8 -16 5 -22z m149 19 c3
-6 -1 -7 -9 -4 -18 7 -21 14 -7 14 6 0 13 -4 16 -10z m42 -25 c0 -8 -4 -12 -9
-9 -5 3 -6 10 -3 15 9 13 12 11 12 -6z m-567 -15 c0 -5 -5 -10 -11 -10 -5 0
-7 5 -4 10 3 6 8 10 11 10 2 0 4 -4 4 -10z m340 0 c0 -5 -4 -10 -10 -10 -5 0
-10 5 -10 10 0 6 5 10 10 10 6 0 10 -4 10 -10z m48 -4 c-7 -8 -15 -12 -17 -11
-5 6 10 25 20 25 5 0 4 -6 -3 -14z m122 4 c0 -5 -4 -10 -10 -10 -5 0 -10 5
-10 10 0 6 5 10 10 10 6 0 10 -4 10 -10z m-210 -25 c-14 -17 -30 -20 -30 -4 0
5 5 7 10 4 6 -3 10 -1 10 4 0 6 5 11 11 11 8 0 8 -5 -1 -15z m52 -10 c-6 -32
-16 -39 -32 -19 -10 12 -11 17 -1 27 10 9 11 8 6 -4 -4 -10 -2 -20 4 -24 6 -3
11 2 11 13 0 16 8 32 15 32 1 0 0 -11 -3 -25z m126 -6 c-3 -8 -7 -3 -11 10 -4
17 -3 21 5 13 5 -5 8 -16 6 -23z m69 7 c0 -9 -6 -12 -16 -8 -13 5 -14 3 -4 -9
10 -13 10 -16 -1 -16 -23 0 -5 42 20 47 0 0 1 -6 1 -14z m-1087 -34 c-1 -16
-1 -16 -11 1 -6 9 -14 15 -20 12 -5 -4 -9 1 -9 10 0 13 4 14 20 5 11 -6 20
-18 20 -28z m790 3 c-6 -8 -9 -19 -5 -25 3 -5 1 -10 -4 -10 -14 0 -14 10 2 43
6 14 14 22 15 16 2 -5 -1 -16 -8 -24z m66 -7 c10 -13 12 -17 4 -11 -10 9 -17
10 -27 2 -7 -7 -13 -8 -13 -3 0 5 -5 2 -10 -6 -8 -13 -10 -12 -10 4 0 12 5 16
15 13 8 -4 17 -2 20 3 3 5 -3 11 -12 13 -15 4 -15 5 -2 6 9 0 24 -9 35 -21z
m146 5 c1 -4 8 -14 17 -21 14 -11 13 -12 -6 -3 -28 14 -36 14 -27 -1 5 -7 3
-8 -6 -3 -10 6 -10 11 3 20 9 7 15 15 12 18 -3 4 -2 5 1 3 3 -2 6 -8 6 -13z
m288 7 c0 -5 -5 -10 -11 -10 -5 0 -7 5 -4 10 3 6 8 10 11 10 2 0 4 -4 4 -10z
m-620 -20 c0 -5 -5 -10 -11 -10 -5 0 -7 5 -4 10 3 6 8 10 11 10 2 0 4 -4 4
-10z m464 2 c3 -5 -1 -9 -9 -9 -8 0 -15 4 -15 9 0 4 4 8 9 8 6 0 12 -4 15 -8z
m2881 -12 c3 -5 2 -10 -4 -10 -5 0 -13 5 -16 10 -3 6 -2 10 4 10 5 0 13 -4 16
-10z m-3175 -25 c-7 -8 -16 -13 -20 -10 -10 6 -24 -24 -21 -45 2 -13 0 -13 -8
-1 -6 10 -6 21 0 33 13 24 -6 24 -20 1 -6 -10 -10 -13 -11 -8 0 23 18 36 43
31 17 -3 27 1 31 11 4 9 9 13 13 10 3 -4 0 -13 -7 -22z m125 16 c3 -6 -3 -15
-14 -21 -14 -7 -22 -7 -26 0 -4 6 -3 10 2 9 20 -3 34 2 28 11 -3 6 -4 10 -1
10 3 0 7 -4 11 -9z m108 -8 c-4 -10 -2 -14 4 -10 5 3 10 0 10 -7 0 -11 -4 -12
-18 -3 -13 8 -15 15 -7 24 14 18 19 16 11 -4z m117 2 c-5 -7 -7 -15 -3 -18 3
-4 1 -7 -5 -7 -6 0 -10 8 -9 18 0 10 7 19 14 19 9 0 10 -4 3 -12z m-191 -28
c0 -9 -2 -8 -6 1 -2 6 -10 9 -15 6 -7 -4 -8 -2 -4 5 9 13 26 5 25 -12z m36 13
c-3 -5 -12 -10 -18 -10 -7 0 -6 4 3 10 19 12 23 12 15 0z m-292 -7 c-7 -2 -13
-9 -13 -14 0 -6 5 -7 10 -4 6 3 10 1 10 -4 0 -14 -17 -14 -25 -1 -8 13 3 30
18 29 9 0 9 -2 0 -6z m97 -22 c-13 -26 -27 -34 -27 -16 0 8 4 12 8 10 4 -3 9
2 13 10 3 8 8 15 11 15 3 0 1 -9 -5 -19z m85 9 c3 -5 1 -10 -4 -10 -6 0 -11 5
-11 10 0 6 2 10 4 10 3 0 8 -4 11 -10z m40 -11 c-4 -5 -12 -9 -18 -8 -9 0 -8
2 1 6 6 2 9 10 6 15 -4 7 -2 8 5 4 6 -4 9 -12 6 -17z m100 3 c-3 -3 -11 0 -18
7 -9 10 -8 11 6 5 10 -3 15 -9 12 -12z m91 6 c3 -4 -1 -5 -10 -4 -8 1 -18 5
-22 8 -3 4 1 5 10 4 8 -1 18 -5 22 -8z m-904 -10 c28 -6 29 -14 3 -14 -14 0
-25 5 -25 11 0 5 -5 3 -10 -5 -6 -9 -10 -11 -10 -3 0 7 -6 10 -14 7 -8 -3 -16
-1 -19 4 -6 8 36 8 75 0z m751 -12 c4 -10 1 -13 -8 -9 -8 3 -12 9 -9 14 7 12
11 11 17 -5z m57 -1 c0 -2 -6 -5 -13 -8 -8 -3 -14 1 -14 8 0 7 6 11 14 8 7 -3
13 -6 13 -8z m-290 -5 c0 -5 -5 -10 -11 -10 -5 0 -7 5 -4 10 3 6 8 10 11 10 2
0 4 -4 4 -10z m138 -4 c-7 -8 -15 -12 -17 -11 -5 6 10 25 20 25 5 0 4 -6 -3
-14z m42 -6 c0 -5 -4 -10 -10 -10 -5 0 -10 5 -10 10 0 6 5 10 10 10 6 0 10 -4
10 -10z m35 -10 c-3 -5 -12 -10 -18 -10 -7 0 -6 4 3 10 19 12 23 12 15 0z
m-201 -15 c-5 -11 -1 -14 12 -9 18 5 18 5 0 -10 -11 -9 -16 -16 -11 -16 4 0
-2 -9 -15 -20 -26 -22 -40 -26 -40 -9 0 5 4 8 9 4 14 -8 40 33 34 56 -3 10 0
19 6 19 5 0 8 -7 5 -15z m126 -5 c-6 -11 -15 -20 -21 -20 -6 0 -7 -4 -4 -10 3
-5 1 -10 -4 -10 -17 0 -13 10 12 36 27 29 31 30 17 4z m116 3 c-2 -9 -8 -18
-15 -19 -6 -1 -7 0 -2 2 6 3 7 12 4 20 -3 8 -1 14 5 14 6 0 9 -8 8 -17z m64 9
c0 -5 -7 -9 -15 -9 -8 0 -12 4 -9 9 3 4 9 8 15 8 5 0 9 -4 9 -8z m-145 -12 c3
-5 1 -10 -4 -10 -6 0 -11 5 -11 10 0 6 2 10 4 10 3 0 8 -4 11 -10z m162 -15
c0 -8 -4 -12 -9 -9 -5 3 -6 10 -3 15 9 13 12 11 12 -6z m-890 -20 c8 -9 5 -15
-10 -24 -17 -11 -19 -11 -14 2 3 8 1 19 -4 24 -6 6 -5 10 4 10 7 0 18 -6 24
-12z m63 7 c0 -11 -17 -34 -24 -33 -20 3 -26 0 -20 -11 4 -6 3 -8 -4 -4 -6 3
-13 2 -17 -4 -8 -13 -50 -6 -49 8 2 27 5 32 15 32 8 0 8 -4 0 -14 -17 -21 8
-27 37 -8 16 10 19 18 12 27 -7 9 -2 12 20 13 17 0 30 -2 30 -6z m30 -2 c0 -5
-5 -10 -12 -10 -6 0 -3 -6 8 -14 10 -8 16 -18 11 -22 -4 -4 -7 -2 -7 6 0 10
-3 10 -15 0 -8 -7 -15 -9 -15 -5 0 5 -9 0 -20 -10 -11 -10 -17 -21 -15 -25 3
-4 -2 -10 -10 -14 -8 -3 -12 -11 -9 -19 3 -8 -2 -14 -11 -14 -19 0 -19 1 0 40
12 23 12 27 2 15 -8 -10 -17 -15 -20 -11 -4 3 -7 1 -7 -5 0 -7 -5 -12 -11 -12
-8 0 -7 6 2 18 11 14 11 15 -1 5 -16 -15 -34 -17 -26 -4 3 4 0 15 -7 24 -9 13
-16 14 -27 6 -12 -9 -12 -10 4 -5 13 4 17 2 13 -8 -3 -7 0 -19 6 -25 8 -8 8
-11 -1 -11 -7 0 -15 7 -18 15 -4 8 -11 15 -17 15 -5 0 -2 -9 8 -20 10 -11 13
-20 8 -20 -20 0 -35 28 -25 47 5 10 7 25 4 33 -4 12 -3 13 10 3 8 -7 18 -10
22 -6 3 4 12 -2 20 -12 15 -21 45 -28 61 -15 10 8 16 10 36 10 5 0 7 5 4 10
-4 6 -3 10 2 9 17 -3 33 1 32 9 -3 18 2 32 11 32 6 0 10 -4 10 -10z m33 -3 c7
3 9 2 4 -2 -4 -5 0 -17 10 -27 9 -10 14 -21 10 -24 -3 -3 3 -15 13 -26 10 -11
16 -27 13 -36 -5 -11 -3 -13 7 -7 9 5 11 4 6 -4 -4 -6 0 -14 8 -17 14 -5 14
-8 -2 -23 -10 -9 -11 -11 -3 -6 10 7 16 6 18 -3 3 -6 8 -10 13 -7 4 3 13 -2
20 -10 7 -8 10 -15 6 -15 -3 0 -8 0 -11 0 -3 0 -22 -14 -41 -32 -20 -18 -40
-32 -45 -30 -5 1 -9 -2 -9 -8 0 -5 -9 -10 -20 -10 -12 0 -17 -5 -14 -14 4 -12
-15 -27 -38 -30 -4 -1 -16 -8 -26 -17 -33 -28 -43 -31 -59 -17 -15 12 -15 11
-4 -11 8 -15 9 -21 2 -17 -6 4 -11 2 -11 -4 0 -6 -5 -8 -10 -5 -8 5 -8 11 0
20 16 20 -13 39 -39 26 -25 -14 -28 -14 -28 3 0 10 10 13 33 11 18 -1 33 1 32
4 -2 20 3 31 12 26 7 -4 7 -13 0 -25 -8 -16 -7 -18 4 -14 8 3 17 0 21 -6 5 -8
11 -8 21 1 16 13 19 33 4 24 -6 -3 -7 1 -3 10 4 12 8 13 13 5 5 -8 10 -9 14
-2 3 6 0 13 -6 16 -7 3 -1 3 15 1 19 -3 25 0 20 8 -4 7 2 5 13 -3 10 -8 16
-10 12 -6 -4 5 -3 15 3 23 9 10 8 13 -1 13 -8 0 -10 3 -7 6 4 4 13 1 21 -5 16
-13 23 -6 22 24 -1 11 -8 20 -16 20 -8 0 -14 -6 -12 -12 1 -7 -3 -13 -8 -13
-17 0 -11 18 11 33 11 8 17 17 12 19 -4 3 -2 3 4 2 7 -2 12 2 10 9 -1 7 6 11
15 9 9 -1 19 2 23 8 3 6 0 7 -9 4 -19 -7 -21 7 -3 25 6 8 7 11 1 8 -6 -3 -11
0 -11 8 0 8 4 15 9 15 5 0 6 5 2 11 -5 8 -10 7 -16 -4 -5 -9 -15 -14 -23 -11
-8 4 -12 10 -9 15 3 5 9 7 14 4 5 -3 12 0 16 6 4 7 3 9 -4 5 -6 -4 -9 3 -8 18
2 16 -1 23 -10 19 -7 -2 -11 -13 -9 -23 2 -10 -3 -24 -11 -31 -16 -13 -18 -5
-4 21 8 15 6 18 -8 15 -9 -1 -17 -9 -16 -16 1 -8 -9 -15 -23 -15 -22 -2 -23
-1 -6 12 17 13 17 14 -2 7 -17 -6 -18 -5 -5 9 8 9 25 15 38 13 26 -3 39 12 24
27 -6 6 -8 18 -4 26 4 11 7 12 10 4 2 -7 9 -9 15 -5z m601 -2 c11 -8 16 -15
10 -15 -5 0 -18 7 -28 15 -11 8 -16 15 -10 15 5 0 18 -7 28 -15z m110 3 c-4
-5 -9 -7 -12 -4 -3 3 -12 0 -21 -7 -14 -10 -14 -10 -4 4 13 16 46 23 37 7z
m-146 -22 c-7 -8 -15 -12 -17 -11 -5 6 10 25 20 25 5 0 4 -6 -3 -14z m89 8
c-3 -3 -12 -4 -19 -1 -8 3 -5 6 6 6 11 1 17 -2 13 -5z m-228 -42 c-13 -9 -28
-16 -33 -14 -5 2 -6 -4 -3 -12 4 -10 1 -13 -8 -10 -11 5 -12 10 -2 24 6 11 14
15 17 10 3 -5 14 2 25 14 11 13 22 19 24 14 2 -5 -7 -17 -20 -26z m161 18 c0
-5 -2 -10 -4 -10 -3 0 -8 5 -11 10 -3 6 -1 10 4 10 6 0 11 -4 11 -10z m40 6
c0 -2 -7 -7 -16 -10 -8 -3 -12 -2 -9 4 6 10 25 14 25 6z m140 0 c0 -3 -4 -8
-10 -11 -5 -3 -10 -1 -10 4 0 6 5 11 10 11 6 0 10 -2 10 -4z m-440 -26 c0 -5
-4 -10 -10 -10 -5 0 -10 5 -10 10 0 6 5 10 10 10 6 0 10 -4 10 -10z m240 -3
c0 -5 -7 -6 -16 -3 -12 4 -15 2 -10 -9 3 -8 1 -15 -4 -15 -10 0 -14 23 -5 32
9 8 35 5 35 -5z m156 -21 c0 -13 -5 -23 -12 -23 -11 0 -11 3 -1 16 10 12 9 14
-4 9 -9 -4 -16 -1 -16 7 0 8 7 11 15 7 11 -4 13 -1 7 9 -5 8 -4 11 1 6 4 -4 9
-18 10 -31z m-270 -3 c-4 -4 -12 -1 -19 7 -9 10 -9 11 1 6 7 -4 12 -2 13 6 0
11 2 11 6 0 3 -7 2 -16 -1 -19z m134 12 c0 -8 -4 -15 -10 -15 -5 0 -7 7 -4 15
4 8 8 15 10 15 2 0 4 -7 4 -15z m-73 -2 c-4 -3 -2 -12 4 -19 10 -12 7 -12 -30
-5 -5 1 20 31 27 31 3 0 2 -3 -1 -7z m133 -28 c0 -5 -5 -3 -10 5 -5 8 -10 20
-10 25 0 6 5 3 10 -5 5 -8 10 -19 10 -25z m-220 4 c0 -5 4 -8 8 -5 4 2 8 -4 8
-15 0 -24 0 -24 -20 6 -9 14 -12 25 -6 25 5 0 10 -5 10 -11z m42 -16 c-3 -16
-7 -22 -10 -15 -4 13 4 42 11 42 2 0 2 -12 -1 -27z m150 5 c-7 -7 -16 -6 -29
1 -16 11 -15 11 6 5 17 -4 21 -3 16 6 -6 9 -4 11 4 5 9 -5 9 -11 3 -17z m-767
-13 c0 -17 -6 -21 -37 -21 -41 0 -46 6 -23 29 22 22 60 17 60 -8z m125 10 c14
-4 30 -7 37 -7 18 -2 6 -41 -19 -60 -13 -10 -19 -18 -14 -18 5 0 2 -8 -7 -18
-11 -12 -15 -28 -11 -47 3 -16 2 -26 -2 -22 -4 4 -12 3 -18 -3 -14 -10 -44 5
-33 17 5 4 11 2 15 -4 5 -9 12 -6 21 8 7 12 8 18 2 15 -7 -5 -9 0 -5 11 5 17
5 17 -6 1 -12 -20 -30 -24 -30 -7 0 5 5 7 10 4 6 -3 10 -1 10 4 0 6 -5 11 -11
11 -5 0 -7 5 -4 10 4 6 10 8 13 6 4 -2 19 4 32 15 15 12 18 17 8 13 -20 -7
-25 11 -6 22 7 4 8 3 4 -4 -4 -7 -5 -12 -2 -12 3 0 10 9 16 20 8 16 8 18 -4
14 -8 -3 -17 0 -22 7 -5 9 -2 10 9 6 9 -3 19 -2 22 2 3 5 -13 8 -34 6 -22 -2
-44 2 -50 9 -10 12 31 13 79 1z m587 9 c-3 -3 -12 -4 -19 -1 -8 3 -5 6 6 6 11
1 17 -2 13 -5z m-143 -44 c-6 -5 -24 21 -24 34 0 6 6 1 14 -10 8 -10 12 -21
10 -24z m103 24 c-3 -3 -12 -4 -19 -1 -8 3 -5 6 6 6 11 1 17 -2 13 -5z m43 1
c0 -2 -10 -9 -22 -15 -22 -11 -22 -10 -4 4 21 17 26 19 26 11z m-780 -30 c0 4
7 2 15 -5 9 -8 15 -9 15 -2 0 6 9 9 20 7 12 -2 23 2 26 9 5 14 61 15 82 2 9
-6 10 -11 2 -21 -6 -7 -9 -19 -8 -26 2 -7 -2 -13 -9 -14 -14 0 -28 -13 -28
-27 0 -6 -8 -12 -17 -14 -10 -1 -18 2 -18 8 0 6 7 8 15 4 13 -4 13 -2 5 14 -7
13 -7 21 2 26 7 5 9 2 4 -7 -4 -8 -1 -6 7 3 8 10 17 15 20 11 4 -3 7 -1 7 5 0
7 -4 12 -10 12 -5 0 -9 6 -7 13 1 6 -5 12 -13 12 -10 0 -14 -8 -13 -23 3 -22
2 -22 -24 -5 -21 14 -25 15 -19 3 5 -8 6 -12 1 -8 -4 4 -14 3 -22 -3 -10 -9
-13 -8 -13 1 0 8 -3 10 -7 7 -3 -4 -18 0 -32 10 -24 15 -25 15 -12 0 15 -19 1
-23 -16 -6 -9 9 -8 15 0 24 10 11 15 10 30 -2 9 -9 17 -13 17 -8z m691 2 c-10
-9 -11 -8 -5 6 3 10 9 15 12 12 3 -3 0 -11 -7 -18z m122 -6 c3 -13 1 -18 -9
-14 -7 2 -10 12 -7 20 5 12 3 14 -7 8 -9 -5 -11 -4 -6 4 9 15 22 7 29 -18z
m101 -11 c-6 -6 -10 -3 -10 10 0 13 4 16 10 10 7 -7 7 -13 0 -20z m-797 5 c0
-8 -4 -12 -9 -9 -4 3 -8 9 -8 15 0 5 4 9 8 9 5 0 9 -7 9 -15z m553 1 c0 -8 -4
-17 -8 -20 -4 -2 -8 4 -8 15 0 10 4 19 8 19 4 0 8 -6 8 -14z m75 1 c14 -11 15
-16 5 -22 -9 -5 -11 -4 -6 3 4 7 5 12 2 12 -2 0 -12 3 -22 7 -11 4 -15 3 -10
-5 3 -6 -2 -15 -12 -21 -14 -7 -19 -6 -19 4 0 7 7 11 14 8 8 -3 13 -2 12 3 -5
27 8 31 36 11z m145 7 c0 -8 -19 -13 -24 -6 -3 5 1 9 9 9 8 0 15 -2 15 -3z
m-885 -32 c6 -4 16 -15 23 -24 12 -15 11 -17 -7 -15 -14 1 -20 6 -16 15 2 7 1
11 -4 7 -5 -3 -11 -1 -13 4 -1 5 -10 2 -18 -7 -13 -14 -12 -15 3 -9 18 7 24
-8 7 -18 -5 -3 -7 -11 -4 -19 3 -7 -2 -13 -10 -13 -18 0 -14 66 5 78 17 11 21
11 34 1z m81 -16 c1 -9 -4 -20 -12 -23 -11 -4 -12 -9 -3 -19 6 -8 15 -11 20
-8 5 3 9 0 9 -6 0 -6 4 -9 8 -6 15 9 6 -34 -11 -54 -9 -11 -12 -20 -7 -20 6 0
10 -5 10 -11 0 -8 -4 -8 -14 1 -8 6 -13 17 -10 24 3 8 -2 16 -11 20 -9 3 -18
0 -21 -8 -6 -17 -32 -28 -44 -21 -11 7 -2 35 11 35 4 0 6 -7 2 -16 -5 -14 -3
-14 15 2 12 9 19 21 16 26 -3 4 -1 8 5 8 5 0 13 -5 16 -10 4 -6 11 -7 17 -4 7
4 8 2 4 -4 -4 -7 -3 -12 3 -12 5 0 9 9 8 19 0 11 -4 19 -7 19 -3 0 -7 1 -10 2
-20 7 -40 7 -40 -2 0 -6 -6 -6 -15 2 -18 15 -38 3 -31 -17 5 -11 2 -13 -10 -9
-8 3 -18 6 -20 6 -2 0 -4 5 -4 10 0 6 6 9 13 8 6 -2 13 4 13 12 3 32 5 34 14
20 8 -13 10 -13 10 -1 0 11 4 10 16 -5 8 -10 13 -13 9 -6 -3 6 1 15 10 18 14
6 14 8 -1 19 -9 6 -14 16 -11 22 10 16 50 8 53 -11z m791 2 c-3 -8 -6 -5 -6 6
-1 11 2 17 5 13 3 -3 4 -12 1 -19z m-142 -10 c-9 -6 -19 -7 -22 -4 -4 3 -1 6
6 6 7 0 9 4 6 10 -4 6 1 7 11 3 15 -6 15 -7 -1 -15z m50 11 c11 -16 1 -19 -13
-3 -7 8 -8 14 -3 14 5 0 13 -5 16 -11z m30 -8 c3 -5 2 -12 -3 -15 -5 -3 -9 1
-9 9 0 17 3 19 12 6z m-904 -17 c11 -14 10 -19 -11 -36 l-25 -21 25 8 c22 7
23 6 11 -9 -11 -13 -11 -16 0 -17 8 -1 18 -1 23 0 5 1 6 -5 3 -13 -8 -20 11
-32 26 -16 9 9 7 15 -7 25 -10 8 -22 12 -26 10 -4 -3 -7 7 -7 21 l0 26 30 -34
c17 -18 30 -37 28 -43 -12 -34 -5 -50 19 -48 14 1 20 -1 13 -3 -7 -3 -10 -11
-7 -19 7 -17 -12 -29 -28 -18 -14 8 -35 14 -58 15 -31 2 -29 48 2 48 6 0 5 -7
-2 -15 -7 -9 -10 -18 -6 -22 3 -3 6 0 6 7 0 9 6 8 20 -5 11 -10 20 -14 21 -9
0 5 2 17 4 27 2 9 -1 15 -6 12 -5 -4 -29 14 -53 40 -29 30 -50 43 -60 39 -24
-9 -19 8 12 38 32 32 36 33 53 12z m946 10 c-3 -3 -12 -4 -19 -1 -8 3 -5 6 6
6 11 1 17 -2 13 -5z m-907 -24 c0 -5 -4 -10 -10 -10 -5 0 -10 5 -10 10 0 6 5
10 10 10 6 0 10 -4 10 -10z m267 -10 c-1 -21 -10 -18 -13 5 -1 8 2 15 6 15 5
0 8 -9 7 -20z m569 2 c1 -7 0 -8 -3 -2 -2 5 -9 8 -14 4 -5 -3 -9 0 -9 6 0 15
23 7 26 -8z m465 -5 c-10 -9 -11 -8 -5 6 3 10 9 15 12 12 3 -3 0 -11 -7 -18z
m-388 -14 c-4 -10 -2 -14 4 -10 5 3 10 -1 10 -9 0 -13 -2 -13 -15 0 -8 8 -11
19 -8 25 11 17 16 13 9 -6z m-833 -18 c14 -16 10 -18 -14 -9 -9 3 -16 10 -16
15 0 14 16 11 30 -6z m810 4 c0 -4 -11 -6 -25 -5 -14 0 -25 4 -25 8 0 4 11 7
25 6 14 -1 25 -5 25 -9z m-880 -39 c0 -5 -5 -10 -11 -10 -5 0 -7 5 -4 10 3 6
8 10 11 10 2 0 4 -4 4 -10z m924 2 c3 -5 -1 -9 -9 -9 -8 0 -12 4 -9 9 3 4 7 8
9 8 2 0 6 -4 9 -8z m4 -35 c18 6 17 5 -8 -14 -13 -10 -16 -8 -17 10 0 12 1 17
4 10 2 -7 12 -9 21 -6z m-933 -17 c3 -5 2 -10 -4 -10 -5 0 -13 5 -16 10 -3 6
-2 10 4 10 5 0 13 -4 16 -10z m438 -13 c14 9 66 12 65 4 -2 -20 3 -31 12 -26
5 3 7 13 4 23 -5 14 -4 15 5 2 7 -11 4 -23 -16 -48 -27 -36 -26 -42 5 -45 11
0 19 -4 16 -8 -2 -4 1 -11 7 -15 8 -5 10 1 7 19 -3 15 -1 24 3 21 15 -9 10
-41 -8 -55 -10 -7 -15 -9 -11 -5 4 5 3 15 -3 23 -13 15 -33 18 -25 4 7 -10
-20 -9 -30 2 -14 14 -26 7 -14 -8 7 -9 10 -18 6 -22 -3 -3 -6 -1 -6 6 0 7 -4
9 -10 6 -5 -3 -26 3 -47 14 -21 11 -32 20 -25 21 6 0 12 5 12 10 0 12 -22 9
-32 -5 -5 -6 -8 -4 -8 5 0 13 -1 13 -10 0 -6 -10 -10 -11 -10 -2 0 6 -5 12
-11 12 -5 0 -8 -4 -4 -9 3 -6 -3 -15 -14 -20 -26 -14 -28 -14 -35 5 -3 8 -2
12 4 9 5 -3 14 4 20 15 6 11 16 19 23 17 7 -1 11 4 9 11 -1 8 2 11 7 8 5 -4
14 2 20 11 8 14 11 15 11 3 0 -12 2 -12 10 2 6 10 19 15 30 13 11 -2 20 2 21
8 0 9 2 8 6 -1 2 -6 10 -9 16 -5z m157 -7 c13 -9 13 -11 0 -20 -8 -5 -23 -7
-32 -4 -12 4 -21 -3 -30 -20 -6 -14 -15 -26 -20 -26 -4 0 4 18 18 40 28 41 39
47 64 30z m340 -10 c0 -5 -2 -10 -4 -10 -3 0 -8 5 -11 10 -3 6 -1 10 4 10 6 0
11 -4 11 -10z m-300 -35 c14 -19 14 -19 -3 -6 -14 11 -21 11 -29 3 -9 -9 -8
-12 5 -12 9 0 17 -5 17 -11 0 -5 4 -8 8 -5 4 2 8 -3 9 -13 1 -14 -5 -12 -29
11 -30 28 -30 29 -12 43 10 7 19 13 19 12 1 -1 7 -11 15 -22z m-655 -5 c3 -5
1 -10 -4 -10 -6 0 -11 5 -11 10 0 6 2 10 4 10 3 0 8 -4 11 -10z m595 -15 c11
-21 11 -29 0 -49 -7 -14 -19 -27 -26 -30 -9 -3 -5 6 7 24 21 28 21 30 5 54 -9
15 -13 26 -8 26 5 0 15 -11 22 -25z m384 17 c3 -5 -1 -9 -9 -9 -8 0 -12 4 -9
9 3 4 7 8 9 8 2 0 6 -4 9 -8z m-338 -61 c-4 -5 -1 -12 4 -14 6 -3 5 -4 -2 -3
-7 1 -25 -9 -40 -23 l-28 -24 24 -17 c24 -15 24 -16 6 -28 -12 -7 -17 -19 -14
-29 4 -14 3 -13 -7 2 -25 39 -18 76 20 112 35 33 47 41 37 24z m41 -22 c0 -21
-3 -26 -9 -16 -4 9 -5 22 -2 31 9 23 11 20 11 -15z m-16 -56 c-9 -6 -18 -9
-21 -7 -2 3 1 8 7 12 8 5 9 13 3 22 -7 12 -11 10 -19 -10 -9 -23 -10 -24 -10
-3 -1 27 19 35 40 14 14 -15 14 -17 0 -28z m54 27 c-3 -5 -12 -10 -18 -10 -7
0 -6 4 3 10 19 12 23 12 15 0z m685 -4 c0 -2 -7 -7 -16 -10 -8 -3 -12 -2 -9 4
6 10 25 14 25 6z m-670 -33 c0 -3 -9 -3 -20 0 -15 4 -20 0 -20 -15 0 -10 4
-17 10 -13 5 3 16 -9 25 -27 14 -29 14 -30 0 -14 -8 11 -15 24 -15 29 0 4 -5
5 -10 2 -12 -8 -24 20 -17 39 5 13 47 12 47 -1z m24 -11 c2 -4 -5 -9 -17 -9
-17 -2 -19 0 -7 7 18 12 18 12 24 2z m-120 -17 c-10 -8 -23 -14 -29 -14 -5 0
-1 6 9 14 11 8 24 15 30 15 5 0 1 -7 -10 -15z m50 -35 c-6 -5 -24 21 -24 34 0
6 6 1 14 -10 8 -10 12 -21 10 -24z m86 15 c0 -2 -6 -5 -13 -8 -8 -3 -14 1 -14
8 0 7 6 11 14 8 7 -3 13 -6 13 -8z m-117 -9 c3 -8 3 -17 0 -20 -10 -10 -33 -7
-33 4 0 5 8 6 18 3 15 -6 15 -5 3 10 -7 9 -9 17 -3 17 5 0 12 -6 15 -14z m157
0 c0 -2 -7 -7 -16 -10 -8 -3 -12 -2 -9 4 6 10 25 14 25 6z m-96 -22 c3 -8 2
-12 -4 -9 -6 3 -10 10 -10 16 0 14 7 11 14 -7z m102 -13 c0 -12 -6 -17 -18
-13 -10 2 -21 8 -24 13 -3 5 1 6 9 3 8 -3 18 -1 22 5 9 15 11 14 11 -8z m-124
-6 c1 -5 8 -16 17 -23 14 -11 13 -11 -7 -2 -13 6 -20 16 -16 22 5 7 1 9 -9 5
-10 -3 -17 -2 -17 4 0 13 31 7 32 -6z m659 -2 c13 -16 12 -17 -3 -4 -17 13
-22 21 -14 21 2 0 10 -8 17 -17z m-696 -13 c8 -13 -5 -13 -25 0 -13 8 -13 10
2 10 9 0 20 -4 23 -10z m122 -5 c5 -4 3 -5 -4 -2 -6 4 -13 2 -15 -3 -2 -7 -10
-6 -21 3 -17 12 -16 13 7 12 14 -1 29 -5 33 -10z m-143 -21 c9 -24 2 -26 -12
-4 -7 11 -8 20 -3 20 5 0 12 -7 15 -16z m41 6 c-3 -5 -1 -10 6 -10 7 0 10 -2
7 -5 -3 -3 -13 -2 -22 1 -14 5 -15 9 -4 15 17 11 20 11 13 -1z m-58 -41 c-5
-20 8 -27 16 -9 3 6 4 5 3 -2 -5 -24 -29 -13 -30 14 -1 14 2 24 7 21 5 -3 7
-14 4 -24z m110 25 c-3 -3 -12 -4 -19 -1 -8 3 -5 6 6 6 11 1 17 -2 13 -5z
m-183 -20 c3 -8 2 -12 -4 -9 -6 3 -10 10 -10 16 0 14 7 11 14 -7z m273 -6 c-3
-8 -6 -5 -6 6 -1 11 2 17 5 13 3 -3 4 -12 1 -19z m-117 -3 c0 -8 -2 -15 -4
-15 -2 0 -6 7 -10 15 -3 8 -1 15 4 15 6 0 10 -7 10 -15z m94 3 c-3 -4 -11 -5
-19 -1 -21 7 -19 12 4 10 11 0 18 -5 15 -9z m76 7 c0 -2 -6 -8 -13 -14 -10 -8
-14 -7 -14 2 0 8 6 14 14 14 7 0 13 -1 13 -2z m-199 -42 c-12 -20 -14 -14 -5
12 4 9 9 14 11 11 3 -2 0 -13 -6 -23z m39 2 c-7 -8 -16 -15 -21 -15 -5 0 -1 8
9 18 20 22 31 19 12 -3z m-119 -18 c-10 -9 -11 -8 -5 6 3 10 9 15 12 12 3 -3
0 -11 -7 -18z m61 -12 c-2 -5 5 -13 15 -17 16 -7 16 -8 -2 -5 -11 2 -19 9 -17
15 1 7 -8 12 -20 12 -21 0 -21 0 -2 -22 19 -23 19 -23 -1 -7 -11 9 -27 14 -35
12 -9 -3 -7 1 5 11 21 17 62 18 57 1z m101 -30 c-3 -9 -8 -14 -10 -11 -3 3 -2
9 2 15 9 16 15 13 8 -4z m-118 -17 c5 4 5 1 0 -7 -7 -12 -10 -11 -20 2 -7 9
-16 13 -20 9 -5 -4 -5 -1 0 7 7 12 10 11 20 -2 7 -9 16 -13 20 -9z m77 -42 c6
4 5 -2 -1 -15 -13 -24 -17 -25 -27 -9 -5 7 -3 8 6 3 9 -5 11 -1 6 16 -3 13 -3
18 0 11 3 -6 10 -9 16 -6z m-1292 -1003 c-1 -5 -14 -24 -30 -43 l-30 -34 0 40
c0 37 2 40 30 42 17 1 30 -1 30 -5z"/>
<path d="M2876 4593 c-8 -24 -6 -39 5 -35 10 2 12 -12 2 -21 -3 -4 -12 -2 -20
4 -8 7 -13 8 -13 1 0 -17 28 -22 41 -6 9 11 9 18 1 26 -20 20 -13 32 8 13 11
-10 17 -22 14 -26 -3 -5 0 -9 5 -9 17 0 13 13 -13 43 -22 25 -25 26 -30 10z"/>
<path d="M2808 4533 c6 -2 10 -8 8 -12 -3 -4 4 -13 16 -20 11 -7 17 -8 14 -3
-3 6 -3 12 1 15 5 2 3 2 -4 1 -6 -2 -14 4 -17 12 -3 8 -11 14 -18 13 -10 0
-10 -2 0 -6z"/>
<path d="M2897 4523 c-10 -10 -8 -23 4 -23 5 0 8 4 5 9 -4 5 0 12 6 14 7 3 8
6 2 6 -6 1 -14 -2 -17 -6z"/>
<path d="M2785 4500 c-5 -9 -4 -11 3 -6 7 4 12 1 12 -8 0 -19 16 -21 26 -3 4
6 4 9 -1 5 -4 -4 -13 0 -20 9 -9 13 -14 13 -20 3z"/>
<path d="M2865 4499 c-4 -6 -5 -12 -2 -15 2 -3 7 2 10 11 7 17 1 20 -8 4z"/>
<path d="M2900 4482 c0 -5 7 -17 15 -28 13 -16 14 -16 9 -1 -5 13 -2 16 12 11
17 -6 17 -5 -1 9 -22 18 -35 21 -35 9z"/>
<path d="M3090 4400 c0 -5 5 -10 10 -10 6 0 10 5 10 10 0 6 -4 10 -10 10 -5 0
-10 -4 -10 -10z"/>
<path d="M3470 4440 c0 -5 5 -10 11 -10 5 0 7 5 4 10 -3 6 -8 10 -11 10 -2 0
-4 -4 -4 -10z"/>
<path d="M3407 4424 c-20 -11 -26 -20 -22 -34 6 -19 -8 -22 -35 -6 -8 5 -12 6
-8 1 4 -4 3 -16 -2 -25 -7 -13 -6 -20 6 -24 8 -3 12 -10 9 -16 -3 -5 -1 -10 4
-10 6 0 11 5 11 11 0 5 5 7 12 3 7 -4 8 -3 4 4 -11 18 3 35 19 22 7 -6 20 -7
29 -4 15 6 15 8 -3 26 -21 19 -28 34 -12 24 5 -3 14 1 21 9 9 11 9 15 1 15 -7
0 -9 5 -6 10 8 13 6 12 -28 -6z m13 -59 c7 -9 8 -15 2 -15 -5 0 -12 7 -16 15
-3 8 -4 15 -2 15 2 0 9 -7 16 -15z m-50 -6 c0 8 2 12 5 9 3 -3 2 -13 -1 -22
-5 -14 -9 -15 -15 -4 -5 7 -9 18 -9 23 0 6 5 3 10 -5 8 -12 10 -12 10 -1z"/>
<path d="M3481 4347 c-15 -15 -14 -40 2 -33 6 3 20 9 30 12 9 4 17 10 17 14 0
13 -38 18 -49 7z"/>
<path d="M3420 4281 c0 -5 -8 -8 -17 -7 -10 0 -18 -6 -18 -14 -1 -22 25 -61
37 -54 5 3 15 0 23 -6 8 -7 15 -9 15 -5 0 12 -48 54 -53 47 -2 -4 -2 -2 -1 5
2 6 -2 14 -9 17 -7 3 -3 4 8 1 27 -6 53 10 31 18 -9 4 -16 3 -16 -2z"/>
<path d="M3430 4246 c0 -9 5 -16 10 -16 6 0 10 4 10 9 0 6 -4 13 -10 16 -5 3
-10 -1 -10 -9z"/>
<path d="M2710 4342 c0 -5 7 -16 16 -23 15 -12 14 -14 -7 -20 -23 -7 -23 -7
-2 -8 31 -1 34 10 12 38 -10 13 -19 19 -19 13z"/>
<path d="M2660 4283 c0 -5 12 -9 27 -10 19 -1 22 1 12 8 -17 11 -39 12 -39 2z"/>
<path d="M2750 4279 c0 -5 5 -7 10 -4 6 3 10 8 10 11 0 2 -4 4 -10 4 -5 0 -10
-5 -10 -11z"/>
<path d="M2636 4253 c-6 -14 -5 -15 5 -6 7 7 10 15 7 18 -3 3 -9 -2 -12 -12z"/>
<path d="M2715 4260 c-4 -6 -4 -14 -1 -17 3 -4 6 -1 6 5 0 21 16 13 17 -8 1
-13 -2 -18 -9 -14 -7 4 -8 2 -4 -5 11 -17 26 -3 22 21 -3 25 -21 35 -31 18z"/>
<path d="M2681 4244 c0 -11 3 -14 6 -6 3 7 2 16 -1 19 -3 4 -6 -2 -5 -13z"/>
<path d="M2661 4234 c0 -11 3 -14 6 -6 3 7 2 16 -1 19 -3 4 -6 -2 -5 -13z"/>
<path d="M2666 4205 c-11 -8 -15 -15 -9 -15 6 0 16 7 23 15 16 19 11 19 -14 0z"/>
<path d="M2770 4205 c0 -8 2 -15 4 -15 2 0 6 7 10 15 3 8 1 15 -4 15 -6 0 -10
-7 -10 -15z"/>
<path d="M2695 4201 c-3 -6 -3 -11 2 -12 4 0 -1 -5 -12 -10 l-20 -9 20 3 c11
2 19 9 18 15 -4 15 13 16 20 2 3 -6 4 -5 3 2 -3 16 -23 22 -31 9z"/>
<path d="M2628 4173 c6 -2 18 -2 25 0 6 3 1 5 -13 5 -14 0 -19 -2 -12 -5z"/>
<path d="M2736 4171 c-3 -4 6 -6 19 -3 14 2 25 6 25 8 0 8 -39 4 -44 -5z"/>
<path d="M2573 4156 c-3 -6 -3 -8 2 -4 4 4 14 3 22 -4 7 -6 16 -8 20 -4 3 3 1
6 -6 6 -7 0 -10 4 -7 8 3 5 -2 9 -10 9 -8 0 -18 -5 -21 -11z"/>
<path d="M2710 4160 c0 -6 7 -13 15 -16 8 -4 13 -10 10 -14 -3 -5 -1 -11 4
-14 5 -4 8 0 7 8 -2 17 -36 51 -36 36z"/>
<path d="M2678 4143 c12 -2 20 -8 17 -13 -3 -5 5 -14 17 -20 20 -9 21 -9 7 2
-9 7 -16 18 -15 23 1 6 -10 11 -24 12 -22 1 -23 1 -2 -4z"/>
<path d="M2606 4118 c3 -5 10 -6 15 -3 13 9 11 12 -6 12 -8 0 -12 -4 -9 -9z"/>
<path d="M2656 4115 c4 -8 8 -15 10 -15 2 0 4 7 4 15 0 8 -4 15 -10 15 -5 0
-7 -7 -4 -15z"/>
<path d="M2547 4099 c7 -7 15 -10 18 -7 3 3 -2 9 -12 12 -14 6 -15 5 -6 -5z"/>
<path d="M2630 4100 c0 -5 5 -10 10 -10 6 0 10 5 10 10 0 6 -4 10 -10 10 -5 0
-10 -4 -10 -10z"/>
<path d="M2677 4097 c-3 -8 -2 -20 3 -26 5 -9 8 -4 8 13 0 29 -3 32 -11 13z"/>
<path d="M2611 4084 c0 -11 3 -14 6 -6 3 7 2 16 -1 19 -3 4 -6 -2 -5 -13z"/>
<path d="M2456 4082 c-3 -5 1 -9 9 -9 8 0 12 4 9 9 -3 4 -7 8 -9 8 -2 0 -6 -4
-9 -8z"/>
<path d="M2450 4056 c0 -2 8 -10 18 -17 15 -13 16 -12 3 4 -13 16 -21 21 -21
13z"/>
<path d="M2433 4033 c0 -11 7 -20 14 -20 10 0 10 4 1 16 -7 9 -13 18 -15 20
-1 2 -1 -5 0 -16z"/>
<path d="M2295 4020 c-3 -5 -1 -10 4 -10 6 0 11 5 11 10 0 6 -2 10 -4 10 -3 0
-8 -4 -11 -10z"/>
<path d="M2355 4021 c-3 -5 -2 -12 3 -15 5 -3 9 1 9 9 0 17 -3 19 -12 6z"/>
<path d="M2390 4022 c0 -5 7 -9 15 -9 8 0 12 4 9 9 -3 4 -9 8 -15 8 -5 0 -9
-4 -9 -8z"/>
<path d="M2810 4009 c0 -5 -4 -8 -9 -4 -5 3 -12 2 -15 -3 -2 -4 4 -8 14 -9 10
-1 21 5 24 13 3 8 1 14 -4 14 -6 0 -10 -5 -10 -11z"/>
<path d="M2434 3959 c1 -15 4 -31 8 -35 4 -4 5 4 3 16 -3 13 0 29 5 35 7 8 5
12 -4 12 -8 0 -13 -11 -12 -28z"/>
<path d="M2775 3970 c-3 -5 -12 -7 -19 -4 -19 7 -31 -15 -16 -29 10 -9 12 -8
6 7 -4 13 -2 17 7 13 7 -3 21 1 32 9 10 8 14 14 8 14 -7 0 -14 -4 -18 -10z"/>
<path d="M2115 3960 c3 -5 8 -10 11 -10 2 0 4 5 4 10 0 6 -5 10 -11 10 -5 0
-7 -4 -4 -10z"/>
<path d="M2389 3957 c6 -8 9 -16 6 -19 -3 -2 2 -5 10 -5 13 0 13 3 -2 19 -19
21 -31 25 -14 5z"/>
<path d="M2596 3955 c-3 -8 -1 -15 4 -15 6 0 10 7 10 15 0 8 -2 15 -4 15 -2 0
-6 -7 -10 -15z"/>
<path d="M2678 3953 c7 -3 16 -2 19 1 4 3 -2 6 -13 5 -11 0 -14 -3 -6 -6z"/>
<path d="M2640 3942 c22 -10 23 -45 2 -37 -13 5 -14 3 -5 -6 16 -16 30 -4 28
23 -1 14 -9 24 -21 25 -14 2 -15 1 -4 -5z"/>
<path d="M2713 3920 c0 -23 3 -28 9 -16 5 9 5 23 0 32 -6 12 -9 7 -9 -16z"/>
<path d="M2520 3920 c8 -5 20 -10 25 -10 6 0 3 5 -5 10 -8 5 -19 10 -25 10 -5
0 -3 -5 5 -10z"/>
<path d="M2680 3920 c0 -5 5 -10 10 -10 6 0 10 5 10 10 0 6 -4 10 -10 10 -5 0
-10 -4 -10 -10z"/>
<path d="M2473 3905 c0 -8 4 -15 9 -15 4 0 8 4 8 9 0 6 -4 12 -8 15 -5 3 -9
-1 -9 -9z"/>
<path d="M2550 3900 c-8 -5 -10 -10 -5 -10 6 0 17 5 25 10 8 5 11 10 5 10 -5
0 -17 -5 -25 -10z"/>
<path d="M2598 3903 c7 -3 16 -2 19 1 4 3 -2 6 -13 5 -11 0 -14 -3 -6 -6z"/>
<path d="M2373 3875 c0 -8 4 -12 9 -9 4 3 8 9 8 15 0 5 -4 9 -8 9 -5 0 -9 -7
-9 -15z"/>
<path d="M2570 3886 c0 -2 7 -7 16 -10 8 -3 12 -2 9 4 -6 10 -25 14 -25 6z"/>
<path d="M2612 3873 c2 -10 10 -17 17 -15 9 2 11 -3 8 -13 -4 -8 -2 -15 4 -15
6 0 9 8 7 18 -2 9 -10 16 -17 14 -9 -2 -11 3 -8 13 4 8 2 15 -4 15 -6 0 -9 -8
-7 -17z"/>
<path d="M2660 3880 c-11 -8 -8 -9 13 -4 17 4 27 2 27 -5 0 -6 -6 -10 -12 -8
-8 1 -12 -7 -11 -20 2 -14 -2 -22 -10 -20 -6 1 -12 -5 -12 -13 0 -10 9 -14 28
-13 24 2 27 0 17 -13 -8 -8 -8 -14 -2 -14 5 0 13 7 16 16 3 8 10 12 16 9 5 -3
10 -1 10 4 0 7 -16 9 -40 6 -24 -3 -40 -1 -40 5 0 5 6 9 13 8 7 -2 11 6 10 19
-2 14 2 22 10 20 6 -1 12 5 12 13 0 18 -25 24 -45 10z"/>
<path d="M2150 3859 c0 -5 5 -7 10 -4 6 3 10 8 10 11 0 2 -4 4 -10 4 -5 0 -10
-5 -10 -11z"/>
<path d="M2400 3855 c-7 -9 -11 -17 -9 -20 3 -2 10 5 17 15 14 24 10 26 -8 5z"/>
<path d="M2579 3853 c14 -28 14 -36 -1 -27 -6 4 -8 3 -4 -4 3 -6 15 -9 26 -7
14 3 20 -2 20 -14 0 -12 -7 -17 -22 -17 -18 1 -22 -4 -20 -21 3 -18 -1 -22
-15 -17 -14 5 -15 4 -3 -4 19 -14 33 -4 27 20 -4 15 -1 18 16 16 18 -2 22 2
22 22 0 16 -5 24 -14 22 -9 -2 -11 3 -7 15 4 9 4 14 0 10 -4 -4 -13 1 -21 11
-13 15 -13 15 -4 -5z"/>
<path d="M2713 3851 c-12 -19 -8 -31 11 -31 6 0 5 4 -3 9 -9 6 -10 11 -2 15 6
4 14 0 17 -9 4 -8 15 -20 25 -26 15 -8 17 -6 13 6 -4 9 -9 13 -12 10 -3 -3
-13 6 -22 19 -15 24 -16 24 -27 7z"/>
<path d="M2544 3834 c-18 -14 -18 -15 4 -4 12 6 22 13 22 15 0 8 -5 6 -26 -11z"/>
<path d="M2485 3810 c-16 -7 -17 -9 -3 -9 9 -1 20 4 23 9 7 11 7 11 -20 0z"/>
<path d="M2556 3807 c3 -10 9 -15 12 -12 3 3 0 11 -7 18 -10 9 -11 8 -5 -6z"/>
<path d="M2527 3799 c7 -7 15 -10 18 -7 3 3 -2 9 -12 12 -14 6 -15 5 -6 -5z"/>
<path d="M2468 3783 c7 -3 16 -2 19 1 4 3 -2 6 -13 5 -11 0 -14 -3 -6 -6z"/>
<path d="M2636 3773 c-6 -14 -5 -15 5 -6 7 7 10 15 7 18 -3 3 -9 -2 -12 -12z"/>
<path d="M2664 3754 c3 -9 6 -18 6 -20 0 -3 5 -2 12 2 8 5 9 2 5 -10 -4 -10
-7 -20 -7 -22 0 -2 -4 -4 -10 -4 -5 0 -9 6 -7 13 1 6 -4 12 -12 12 -8 0 -15
-6 -17 -13 -1 -7 0 -8 3 -2 2 5 9 10 14 10 6 0 8 -4 4 -9 -10 -17 18 -24 30
-8 7 9 16 13 20 9 4 -4 2 3 -4 16 -6 12 -16 22 -22 22 -6 0 -7 5 -4 10 3 6 1
10 -5 10 -7 0 -9 -7 -6 -16z"/>
<path d="M2611 3753 c-1 -18 13 -23 29 -11 12 8 12 9 -2 5 -9 -3 -19 -1 -22 6
-3 9 -5 9 -5 0z"/>
<path d="M2708 3753 c7 -3 16 -2 19 1 4 3 -2 6 -13 5 -11 0 -14 -3 -6 -6z"/>
<path d="M2593 3715 c0 -8 4 -15 9 -15 4 0 8 7 8 15 0 8 -4 15 -8 15 -5 0 -9
-7 -9 -15z"/>
<path d="M2170 3699 c0 -5 5 -7 10 -4 6 3 10 8 10 11 0 2 -4 4 -10 4 -5 0 -10
-5 -10 -11z"/>
<path d="M2605 3680 c-3 -6 1 -7 9 -4 18 7 21 14 7 14 -6 0 -13 -4 -16 -10z"/>
<path d="M2275 3660 c3 -5 8 -10 11 -10 2 0 4 5 4 10 0 6 -5 10 -11 10 -5 0
-7 -4 -4 -10z"/>
<path d="M2619 3668 c0 -2 -2 -14 -5 -28 -3 -18 -2 -21 5 -10 5 8 7 18 5 22
-3 4 5 8 17 8 21 0 22 -1 4 -20 -21 -24 -14 -27 9 -4 19 19 12 34 -15 34 -10
0 -19 -1 -20 -2z"/>
<path d="M2591 3644 c0 -11 3 -14 6 -6 3 7 2 16 -1 19 -3 4 -6 -2 -5 -13z"/>
<path d="M2700 3638 c0 -11 12 -10 30 2 12 7 10 9 -8 7 -12 0 -22 -5 -22 -9z"/>
<path d="M2130 3620 c0 -5 5 -10 11 -10 5 0 7 5 4 10 -3 6 -8 10 -11 10 -2 0
-4 -4 -4 -10z"/>
<path d="M2199 3593 c-13 -16 -12 -17 4 -4 9 7 17 15 17 17 0 8 -8 3 -21 -13z"/>
<path d="M2316 3573 c-6 -14 -5 -15 5 -6 7 7 10 15 7 18 -3 3 -9 -2 -12 -12z"/>
<path d="M2386 3578 c3 -4 9 -8 15 -8 5 0 9 4 9 8 0 5 -7 9 -15 9 -8 0 -12 -4
-9 -9z"/>
<path d="M2255 3569 c-4 -6 -5 -12 -2 -15 2 -3 7 2 10 11 7 17 1 20 -8 4z"/>
<path d="M2339 3553 c-13 -17 -13 -17 6 -3 11 8 22 16 24 17 2 2 0 3 -6 3 -6
0 -17 -8 -24 -17z"/>
<path d="M2270 3556 c0 -2 8 -10 18 -17 15 -13 16 -12 3 4 -13 16 -21 21 -21
13z"/>
<path d="M2350 3496 c7 -7 13 -7 20 0 6 6 3 10 -10 10 -13 0 -16 -4 -10 -10z"/>
<path d="M2274 3486 c1 -8 5 -18 8 -22 4 -3 5 1 4 10 -1 8 -5 18 -8 22 -4 3
-5 -1 -4 -10z"/>
<path d="M2216 3473 c-6 -14 -5 -15 5 -6 7 7 10 15 7 18 -3 3 -9 -2 -12 -12z"/>
<path d="M2329 3477 c6 -8 7 -18 3 -22 -4 -5 -1 -5 6 -1 10 6 10 11 1 22 -6 8
-14 14 -16 14 -3 0 0 -6 6 -13z"/>
<path d="M2156 3442 c-3 -5 1 -9 9 -9 8 0 12 4 9 9 -3 4 -7 8 -9 8 -2 0 -6 -4
-9 -8z"/>
<path d="M2273 3435 c0 -8 4 -12 9 -9 4 3 8 9 8 15 0 5 -4 9 -8 9 -5 0 -9 -7
-9 -15z"/>
<path d="M2155 3409 c-4 -6 -5 -12 -2 -15 2 -3 7 2 10 11 7 17 1 20 -8 4z"/>
<path d="M2106 3402 c-3 -5 1 -9 9 -9 8 0 12 4 9 9 -3 4 -7 8 -9 8 -2 0 -6 -4
-9 -8z"/>
<path d="M2240 3380 c-9 -6 -10 -10 -3 -10 6 0 15 5 18 10 8 12 4 12 -15 0z"/>
<path d="M2234 3346 c1 -8 5 -18 8 -22 4 -3 5 1 4 10 -1 8 -5 18 -8 22 -4 3
-5 -1 -4 -10z"/>
<path d="M2095 3340 c-3 -5 -1 -10 4 -10 6 0 11 5 11 10 0 6 -2 10 -4 10 -3 0
-8 -4 -11 -10z"/>
<path d="M3100 4146 c0 -2 8 -10 18 -17 15 -13 16 -12 3 4 -13 16 -21 21 -21
13z"/>
<path d="M3166 4012 c-3 -5 1 -9 9 -9 8 0 12 4 9 9 -3 4 -7 8 -9 8 -2 0 -6 -4
-9 -8z"/>
<path d="M3145 3971 c3 -5 1 -13 -5 -16 -8 -5 -8 -11 0 -20 7 -8 9 -19 6 -24
-4 -5 -2 -12 2 -15 5 -3 24 10 42 29 18 19 38 31 43 28 6 -3 7 -1 3 6 -4 6
-11 9 -16 6 -5 -3 -11 -1 -15 5 -4 6 -11 8 -16 4 -5 -3 -7 -10 -4 -15 4 -5 1
-9 -4 -9 -6 0 -11 4 -11 9 0 5 -7 12 -16 15 -8 3 -12 2 -9 -3z m39 -42 c-15
-16 -30 -29 -33 -29 -3 0 0 5 7 12 9 9 7 14 -5 23 -13 10 -13 14 -3 20 8 5 11
4 7 -2 -4 -6 0 -13 7 -16 17 -7 39 16 28 28 -4 5 -1 5 6 1 11 -6 7 -15 -14
-37z"/>
<path d="M3047 3831 c-10 -14 -10 -14 4 -4 9 7 18 10 21 7 3 -3 8 -1 12 4 9
16 -24 9 -37 -7z"/>
<path d="M2925 4040 c-3 -5 -1 -10 4 -10 6 0 11 5 11 10 0 6 -2 10 -4 10 -3 0
-8 -4 -11 -10z"/>
<path d="M3120 4020 c11 -7 11 -10 2 -10 -7 0 -10 -5 -6 -11 4 -8 9 -7 15 2 9
15 3 29 -14 29 -7 0 -6 -4 3 -10z"/>
<path d="M3080 3950 c-8 -5 -12 -12 -9 -15 4 -3 12 1 19 10 14 17 11 19 -10 5z"/>
<path d="M3050 3999 c0 -5 5 -7 10 -4 6 3 10 8 10 11 0 2 -4 4 -10 4 -5 0 -10
-5 -10 -11z"/>
<path d="M2955 3910 c3 -5 8 -10 11 -10 2 0 4 5 4 10 0 6 -5 10 -11 10 -5 0
-7 -4 -4 -10z"/>
<path d="M2786 3914 c-11 -7 -18 -16 -15 -18 2 -2 13 2 23 10 11 7 18 16 15
18 -2 2 -13 -2 -23 -10z"/>
<path d="M3305 3771 c-3 -6 -14 -8 -25 -6 -22 4 -23 3 -14 -19 3 -9 10 -13 15
-10 5 3 7 9 5 13 -3 4 1 8 9 8 8 0 15 -5 15 -10 0 -15 14 1 16 18 2 17 -12 20
-21 6z"/>
<path d="M3339 3777 c-1 -4 -2 -10 -3 -14 -3 -18 -18 -33 -27 -27 -5 3 -15 1
-22 -5 -12 -9 -40 -1 -38 13 3 24 -1 27 -14 10 -8 -10 -15 -15 -15 -11 0 8
-30 -17 -30 -25 0 -2 11 -4 24 -4 14 0 22 4 20 8 -3 4 -1 8 4 8 14 0 24 -29
15 -43 -5 -8 -2 -8 9 0 8 7 19 9 23 5 5 -4 5 1 2 10 -7 19 8 34 18 18 9 -15
25 -12 25 4 0 8 7 16 15 20 13 4 12 1 -1 -20 -10 -14 -23 -23 -30 -20 -7 3
-15 -2 -18 -11 -5 -11 -2 -14 10 -9 9 4 24 1 32 -6 13 -11 15 -10 9 6 -5 12
-1 26 9 37 15 16 15 20 0 41 -9 12 -17 19 -17 15z"/>
<path d="M3145 3690 c-3 -6 1 -7 9 -4 18 7 21 14 7 14 -6 0 -13 -4 -16 -10z"/>
<path d="M3270 3681 c0 -9 30 -24 36 -18 2 1 -6 8 -16 15 -11 7 -20 8 -20 3z"/>
<path d="M3425 3760 c3 -5 10 -10 16 -10 5 0 9 5 9 10 0 6 -7 10 -16 10 -8 0
-12 -4 -9 -10z"/>
<path d="M3424 3561 c0 -15 3 -17 13 -9 7 6 10 14 7 19 -9 15 -20 10 -20 -10z"/>
<path d="M6510 6760 c0 -5 7 -7 15 -4 8 4 15 8 15 10 0 2 -7 4 -15 4 -8 0 -15
-4 -15 -10z"/>
<path d="M1510 6315 c7 -8 16 -12 21 -9 13 8 1 24 -18 24 -13 0 -13 -3 -3 -15z"/>
</g>
</svg>
